<?xml version="1.0" encoding="UTF-8"?><svg xmlns="http://www.w3.org/2000/svg" width="52.1903" height="50.15561" viewBox="0 0 52.1903 50.15561" x="0px" y="0px" version="1.1" xmlns:xlink="http://www.w3.org/1999/xlink">
  
  <title>Ресурс 428</title>
  <g id="Слой_2" data-name="Слой 2">
    <g id="Capa_1" data-name="Capa 1">
      <g>
        <path d="M51.51948,20.35074c-.4-5.1,0-13.2-3.8-17.2-3.5-3.8-10.4-3.1-15.1-3.1a138.23852,138.23852,0,0,0-23.3,1.9,6.1908,6.1908,0,0,0-1.9.7,7.84371,7.84371,0,0,0-5.3,3.2c-2.6,3.7-1.9,9.1-1.9,13.4,0,6.5-.7,13.6.4,20.1,1.8,10.7,13.8,10.6,22.6,10.7,7.9.1,23.8,1.3,27.6-7.8C53.11949,35.95075,51.91951,26.95075,51.51948,20.35074Z" style="
        fill: #f7d3bd;
      "/>
        <path d="M33.11949,24.75075c2.2-2.6,4.4-5.3,6.5-7.9,3.4-4.5-4.3-9-7.6-4.4-1.5,1.9-3.1,3.8-4.7,5.7-2.9-3.4-5.9-6.7-8.7-10-3.7-4.3-10,1.9-6.2,6.2,2.9,3.4,6,6.9,9,10.3-3.2,3.2-6.5,6.3-10,9.2-4.4,3.7,1.9,9.8,6.2,6.2a113.7209,113.7209,0,0,0,9.5-8.8c1.9,2.2,3.8,4.3,5.6,6.5,3.7,4.3,10-1.9,6.2-6.2C36.91951,29.35074,35.01948,26.95075,33.11949,24.75075Z" style="
        fill: #57455e;
      "/>
      </g>
    </g>
  </g>
</svg>